<?xml version="1.0" encoding="UTF-8"?><svg xmlns="http://www.w3.org/2000/svg" viewBox="0 0 135.11 184.68"><defs><style>.d{fill:#a8b96a;}.e{fill:#7f923a;}.f{fill:#c3ce9c;}</style></defs><g id="a"/><g id="b"><g id="c"><g><path class="f" d="M88.36,78.32c8.87,4.97,17.82,9.8,26.58,14.95,6.87,4.04,12.99,9.09,17.93,15.42,2.29,2.94,2.33,6.4,2.21,9.94-.39,10.9-2.8,21.56-4.21,32.32-.62,4.74-1.41,9.49-1.83,14.28-.19,2.23-1.59,3.81-3.44,4.56-7.16,2.9-14.34,5.82-22.2,6.41-2.38,.18-4.45,.95-5.32,3.68-.9,2.82-2.86,3.55-5.88,2.83-11.29-2.66-22.74-4.19-34.36-4.66-3.84-.15-6.94,3.47-10.94,1.64-.13-.06-.99,.92-1.12,1.49-1.25,5.91-2.83,3.08-5.06,.44-2.4-2.85-5.98-1.7-8.88-1.03-2.35,.54-4.32,.21-5.31-1.43-2.15-3.59-4.89-3.9-8.6-3.09-4.31,.94-7.06-1.5-8.29-5.39C4.08,153.15-1.42,135.59,.33,116.78c.67-7.19,4.14-12.85,9.57-17.38,10.09-8.42,21.37-15,33.13-20.72,2.71-1.32,3.96-3.87,6.33-5.3,1.77,1.9,.66,4.08,.59,6.16-3.97,1.99-8.31,3.22-11.97,5.83-2.57,.22-3.52,2.34-4.8,4.07-1.47,.02-1.61,1.67-2.69,2.17-.57-.87-1.27-.74-2.1-.37-6.03,2.6-11.29,6.27-16.48,11.79,2.95-.43,5.3,2.46,6.88,.08,1.5-2.25,3.26-1.7,5.06-2.03-1.73,2.96-3.15,5.9-2.72,9.58,.29,2.51-.92,3.01-2.78,1.01-2.13-2.29-2.94-1.15-3.17,1.32-.3,3.2-.83,6.39-.9,9.59-.06,2.83-.56,4.27-3.59,2.42-1.12-.68-2.31-.79-2.91,.6-.61,1.41,.37,2.31,1.58,2.5,4.28,.65,2.1,2.48,.85,4.17-.05-.12-.08-.25-.16-.34-.04-.05-.16-.05-.25-.07l.45,.37c.77,4.99,4.2,8.14,7.79,11.15,1.17,.98,2.42,1.37,.81,3.37-2.09,2.59-.68,12.04,1.15,14.83,3.96,6.05,10.3,5.71,16.24,6.56h0c2,2.41,1.42,5.83,2.95,8.42,1.73-.54,.69-2.65,1.82-2.83,6.73-1.07,3.98-5.9,3.77-9.52-.45-7.66-1.18-15.3-1.79-22.95,3.02,5.8,2.41,12.2,3.79,18.28,.69,3.04,3.73,3,3.89,5.25,.41,5.91,2.76,3.27,5.17,1.37,1.54-1.22,2.17-3.11,3.53-5.13,.91,2.24,1.56,3.84,2.31,5.71,1.79-6.68,8.84-.82,11.09-5.94,1,3.79-.06,7.38,2.48,11.42-.07-3.8,.05-6.38,2.25-9.03,.77,3.58,4.1,6.22,5.64,4.31,2.69-3.34,8.33-2.97,9.27-8.11,.16-.89,.96,.79,1.67,.89-.12,3.79,.87,7.38,1.99,11.82,2.19-3.35,5.97-4.96,5.95-8.69-.02-3.23,1.52-5.17,3.47-7.18,2.26-1.3,3.6-3.19,4.28-5.75,.24-.93,.04-2.72,1.59-2.73,5.06-.05,5.97-4.92,8.95-7.38,1.97-.05,1.78-2.12,2.84-3.08,1.82-1.63,1.47-1.45-.74-2.86-1.85-1.18,1.02-.95,1-1.8,1.15,.12,2.4,1.37,3.41-.07,.9-1.29-.24-2.33-.75-3.43,.2-.48,.39-.96,.59-1.44,.4-.4,.98-.82,.46-1.43-.58-.68-.97-.04-1.37,.33-.52,.26-1.03,.51-1.55,.77-.3-2.65-.6-5.3-.9-7.95,1.49-1.91,3.03-3.79,4.42-5.77,.27-.39,1.01-1.68-.64-1.44-.38,.06-.67,.64-1.01,.99-.82-.8-2.44-1.76-2.32-2.37,.85-4.09-2.32-4.41-4.73-5.5-.75-.34-1.52-.64-2.2-1.08-3.55-2.25-5.37-1.45-5.17,2.77,.08,1.79-.71,2.74-1.38,3.98-.46,.86-.93,2.07-2.09,1.68-1.49-.5-1.01-2.05-.7-3,.86-2.67,1.99-5.25,3.02-7.87,1.1-2.8,1.66-5.55-1.65-7.29-3.49-1.83-7.06-3.49-10.6-5.23-1.29-1.85-2.21-4.03-4.58-5.07-.49,1.87-.35,3.59,.31,5.26,1.71,4.27,3.46,8.52,5.18,12.79,.49,1.22,2.04,2.83-.93,3.01-.34-.81-1.05-.99-1.81-1.1l-8.15-9.91c-.29-1.92-.83-3.85-.81-5.77,.02-3.4-1.72-7.01,.92-10.18Zm37.84,69.96c-.15-1.92,.56-4.04-1.73-4.87-1.95-.7-2.99,.95-4.15,2.06-3.58,3.44-6.41,7.36-7.55,12.29-.38,1.63-2.73,3.49-.79,4.82,2.01,1.38,4.5,.65,6.96-.48,6.26-2.86,6.33-8.57,7.27-13.82Zm.69-23.25c3.13-1.14,4.5-3.29,4.07-7.59-1.72,3.21-2.9,5.4-4.07,7.59Z"/><path class="e" d="M43.06,15.39c-.62-1-.92-1.99,.16-2.9,1.52-.78,.95-2.28,1.22-3.49,.44-.42,.89-.83,1.33-1.25,1.72-.89,3.37-1.96,5.18-2.61,2.51-.9,2.07-2.49,1.39-4.29C55.59,2.36,58.49-.1,61.85,0c6.94,.21,12.81,2.41,18.6,5.65,8.19,4.58,12.33,11.86,12.55,20.88,.1,3.97,1.2,7.84,.82,11.8-2.38-1.03-3.15,1.44-4.74,2.15-.12-1.61-.23-3.23-.35-4.84,.98-4.77-.89-9.16-1.97-13.62-1.78-7.39-2.48-7.54-9.7-6.67-3.38,.41-3.36,2.73-3.86,4.84-.63,2.66,1.16,2.93,3.33,3.63,3.74,1.21,7.77,2.81,7.66,8.66-2.8-2.01-5.3-2.17-8.98-1.88,2.6,1.05,4.19,1.52,5.59,2.3,2.78,1.55,2.97,3.99,.29,5.29-4.22,2.06-2.99,4.89-1.99,7.89,.54,1.61,2.09,2.93,1.59,4.92-4.76,.07-9.18-2.9-14.85-.39,3.07,.66,5.13,1.02,7.15,1.56,1.01,.27,2.69-.31,2.84,1.3,.12,1.36-1.3,1.81-2.36,2.18-3.2,1.11-4.71,2.48-3.55,6.5,2.65,9.21,2.35,9.29,11.27,5.25l-.02-.02c-.77,3.34-3.96,4.15-6.25,5.88-2.32,1.76-4.92,3.18-7.11,5.07-3.22,2.78-.93,6.2-.61,9.36,.15,1.52-.88,3.69,1.27,4.33,1.66,.49,3.13-.85,4.37-1.94,4.28-3.74,8.57-7.47,11.74-12.45,.14,7.78-3.47,14.52-5.38,21.67-1.81,3.13-5.7,4.86-6.08,8.95h0c-1.99,.74-1.48,3.83-3.92,4.14-.74-1.64-1.02-3.9-2.28-4.81-7.92-5.71-9.81-14.97-14.02-22.86-.45-.84-1.12-1.56-1.69-2.34l-.3-1.84c2.59-1.3,2.25,1.42,3.11,2.36,.97,1.06,1.47,3.34,2.92,2.95,1.54-.41,3.08-1.97,3.96-3.42,1.34-2.21-.2-3.96-1.67-5.7-2-2.37-5.31-3.84-5.93-7.9,1.11,.47,1.8,.61,2.27,1,2.18,1.77,3.83,3.08,6.62,.18,3-3.12,.7-4.01-1.15-5.65-.95-.84-1.17-2.49-.29-3.16,2.32-1.76,2.21-4.92,4.68-6.4-6.2-2.16-9.08,.39-10,6.03-.18,1.1-.26,2.74-1.6,2.81-1.61,.08-2.58-1.49-3.19-2.77-2.2-4.56,1.59-14.12,6.44-16.6,.45,1.75,.63,3.48,.21,5.29-.2,.86-.43,2.18,.86,2.44,.88,.18,1.97-.04,2.8-.43,1.46-.69,.51-1.43-.1-2.22-1.24-1.6,.17-1.86,1.25-2.25,1.82,.12,3.63,.33,5.45,.32,1.41,0,3.13,.74,4.13-.79,1.43-2.19-2.54-1.73-2.04-3.49,.95-1.16,2.78,.87,2.99-.72,.17-1.26-.17-3.24-1.84-3.68-1.93-.51-2.9-1.34-2.66-3.4,.16-1.36,.05-3.01-1.45-3.32-2.17-.46-1.22,2.36-2.56,2.98-2.69,1.54-3.92,4.76-6.89,5.97-.62-1.47-1.81-1.46-3.1-1.18-1.8-.21-2.39-2.82-3.68-2.7-5.99,.55-1.42-2.21-1.24-3.57,.26-.16,1.01-.11,.32-.71l-.41,.62c-2.78-.2-3.52-1.35-1.65-3.62,1.97-2.4,4.97-2.78,7.65-3.79,2.83,.92,5.69,1.78,8.49,2.78,1.51,.54,2.43,.83,3.66-.95,3.53-5.11-1.18-5.05-3.69-6.45-1.46-3-3.26-3.7-6.21-1.51-2.75,2.05-5.96,2.57-9.21,.81-1-.54-1.91-.14-2.79,.38-2.21-.91-.75-3.24-1.78-4.61-.06-.22-.13-.45-.2-.67-.04-.21-.16-.34-.37-.38Z"/><path class="d" d="M89.08,40.48c1.58-.71,2.36-3.19,4.74-2.15,3.25,4.68,3.7,12.19-.21,15.27-8.9,7-10.76,14.95-5.25,24.73-2.64,3.17-.9,6.77-.92,10.18-.01,1.92,.52,3.84,.81,5.77-.7-.34-1.39-.69-2.09-1.03-.27-.55-.59-.57-.96-.09-1.56,1.89-.88,5.18-3.87,6.18l-2.12-.03c1.91-7.15,5.52-13.89,5.38-21.67-3.18,4.99-7.47,8.72-11.74,12.45-1.25,1.09-2.72,2.43-4.37,1.94-2.15-.64-1.12-2.81-1.27-4.33-.32-3.15-2.61-6.57,.61-9.36,2.19-1.89,4.79-3.31,7.11-5.07,2.28-1.73,5.48-2.53,6.25-5.88l.22-.38-.2,.4c-8.92,4.04-8.62,3.96-11.27-5.25-1.16-4.02,.35-5.4,3.55-6.5,1.07-.37,2.49-.82,2.36-2.18-.15-1.61-1.83-1.03-2.84-1.3-2.01-.55-4.08-.91-7.15-1.56,5.66-2.51,10.09,.46,14.85,.39,.5-1.99-1.05-3.31-1.59-4.92-1-3-2.24-5.83,1.99-7.89,2.68-1.3,2.49-3.74-.29-5.29-1.41-.79-3-1.25-5.59-2.3,3.68-.29,6.18-.13,8.98,1.88,.11-5.85-3.91-7.45-7.66-8.66-2.17-.7-3.97-.96-3.33-3.63,.5-2.1,.48-4.43,3.86-4.84,7.22-.88,7.92-.72,9.7,6.67,1.08,4.46,2.95,8.85,1.97,13.62-1.99,2.8-2.85,6.28-5.3,8.85-.43,.45-.16,1.6-.15,2.42,.01,1.25,.3,2.34,1.88,2.36,1.21,.02,1.55-.76,1.99-1.77,.97-2.27,.41-4.93,1.92-7.02Z"/><path class="d" d="M54.15,39.75c1.29-.27,2.48-.29,3.1,1.18-.32,1.09-.8,2.18-.15,3.31-4.85,2.48-8.64,12.04-6.44,16.6,.62,1.28,1.58,2.85,3.19,2.77,1.34-.07,1.42-1.71,1.6-2.81,.92-5.64,3.8-8.19,10-6.03-2.47,1.48-2.36,4.64-4.68,6.4-.88,.67-.66,2.31,.29,3.16,1.85,1.64,4.15,2.53,1.15,5.65-2.8,2.91-4.45,1.6-6.62-.18-.48-.39-1.16-.52-2.27-1,.62,4.06,3.93,5.53,5.93,7.9,1.47,1.74,3.01,3.49,1.67,5.7-.88,1.45-2.42,3.01-3.96,3.42-1.46,.39-1.96-1.89-2.92-2.95-.86-.94-.52-3.66-3.11-2.36l-.98-1c.07-2.08,1.18-4.26-.59-6.16,.34-4.15,.89-8.34-1.97-11.97,.67-.62,.82-1.37,.59-2.23-1.8-6.59-1.66-12.6,4.74-16.95,.71-.48,.97-1.63,1.43-2.46Z"/><path class="f" d="M54.15,39.75c-.47,.84-.73,1.98-1.43,2.46-6.39,4.35-6.54,10.37-4.74,16.95,.23,.86,.09,1.61-.59,2.23-5.19-4.74-8.5-10.32-8.09-17.65,.12-2.1,.22-4.03,2.89-4.36,1.42,.56,2.15,.24,1.96-1.44-.63-5.71,1.54-11.22,1.25-16.91,.88-.52,1.79-.92,2.79-.38,3.26,1.75,6.46,1.24,9.21-.81,2.94-2.19,4.74-1.49,6.2,1.51-2.6,1.96-5.14,4-8.46,4.62-2.67,1.02-5.67,1.4-7.65,3.79-1.88,2.28-1.13,3.43,1.65,3.62l.09,.08c-.18,1.36-4.75,4.11,1.24,3.57,1.29-.12,1.88,2.5,3.68,2.7Z"/><path class="e" d="M45.4,21.05c.29,5.69-1.88,11.2-1.25,16.91,.19,1.69-.54,2-1.96,1.44-.17-2.93-.33-5.86-.5-8.78,.05-.42,.1-.83,.15-1.25,.64-4.3,0-8.78,1.79-12.92,1.03,1.37-.44,3.69,1.78,4.61Z"/><path class="f" d="M41.84,29.36c-.05,.42-.1,.83-.15,1.25,.05-.42,.1-.83,.15-1.25Z"/><path class="d" d="M10.21,132.26c1.25-1.69,3.43-3.52-.85-4.17-1.21-.18-2.19-1.08-1.58-2.5,.6-1.39,1.8-1.28,2.91-.6,3.03,1.85,3.53,.41,3.59-2.42,.07-3.2,.6-6.39,.9-9.59,.23-2.46,1.04-3.61,3.17-1.32,1.86,2,3.07,1.5,2.78-1.01-.43-3.68,1-6.62,2.72-9.58,2.66-1.08,2.56-4.52,4.99-5.8,6.82,.91,2.3,5.03,1.52,7.11-1.39,3.71-1.21,5.64,3.13,5.87,1.31,.06,2.55-.17,3.66-.9,.82-.03,1.64-.06,2.46-.1,1.11-.24,2.28-.32,3.31-.74,8.52-3.53,18.45-.12,22.64,7.89,.35,.66,.53,1.64,.31,2.32-1.16,3.54-2.47,7.04-3.73,10.55-1.4,.25-2.68-1.58-4.19-.15-1.5,1.42-3.48,12.45-2.4,14.82,.92-2.13,1.71-4.12,2.62-6.05,.99-2.11,.52-5.21,3.82-5.8,.7,3.14-.51,6.46,.98,10.5,1.55-3.06,.88-5.54,1.08-7.86,.44-5.1,.47-10.29,3.71-14.68,.98,.97,3.29,1.56,2.98,.4-1.07-4.04,2.91-6.56,2.37-10.2h0c1.28,.5,1.93-.69,2.87-1.07,.83,2.4,1.34,2.27,2.45,0,1.94-3.99,5.42-5.21,9.05-2.7,3.36,2.33,5.99,1.3,8.89-.31,.76,.11,1.47,.29,1.81,1.1,2.78,6.41,4.32,13.25,6.92,19.8,.47-2.4,.83-4.6,.45-7.02-1.56-9.83-5.1-19.13-7.35-28.77,3.54,1.73,7.11,3.4,10.6,5.23,3.31,1.73,2.75,4.48,1.65,7.29-1.03,2.62-2.16,5.2-3.02,7.87-.31,.96-.79,2.5,.7,3,1.16,.39,1.63-.83,2.09-1.68,.67-1.24,1.47-2.19,1.38-3.98-.2-4.22,1.63-5.01,5.17-2.77,.69,.44,1.46,.74,2.2,1.08,2.42,1.09,5.59,1.41,4.73,5.5-.13,.6,1.5,1.57,2.32,2.37-.5,2.11-2.36,2.97-3.83,4.22-2.7,2.31-5.81,4.27-7.09,7.87l.04-.04c-.35,.35-.69,.69-1.04,1.04l.04-.04c-.35,.35-.69,.69-1.04,1.04l.04-.03c-1.97-.07-3.39-.73-2.6-3.03,.74-2.15-.34-3.68-1.8-5.33,.45,5.53-2.07,10.83-.63,16.37l.02-.03c-2.8,2.11-2.9,3.85,0,6.32,4.06,3.46,6.81,1.21,9.75-1.36,.72,0,1.44,0,2.15-.01l.22,.19c-2.97,2.45-3.89,7.33-8.95,7.38-1.55,.01-1.35,1.8-1.59,2.73-.67,2.56-2.02,4.45-4.28,5.75-2.21,0-2.54-1.2-1.74-2.91,1.09-2.36,1.34-5.05,3.1-7.18,.66-.8,.75-2.5-.22-3.22-1.32-.97-1.79,.74-2.66,1.34-2.26,1.57-3.23,3.57-2.89,6.3,.31,2.48-.56,3.46-3.12,2.35-.95-.42-1.79-1.58-3.24-.73,1.36,2.82-.53,5.37-.63,8.1-.71-.09-1.51-1.78-1.67-.89-.94,5.13-6.58,4.77-9.27,8.11-1.54,1.91-4.87-.74-5.64-4.31-2.2,2.66-2.32,5.24-2.25,9.03-2.54-4.03-1.48-7.63-2.48-11.42-2.26,5.12-9.31-.74-11.09,5.94-.76-1.87-1.41-3.47-2.31-5.71-1.36,2.02-1.99,3.91-3.53,5.13-2.41,1.9-4.75,4.54-5.17-1.37-.16-2.25-3.2-2.21-3.89-5.25-1.38-6.08-.77-12.48-3.79-18.28,.61,7.65,1.34,15.29,1.79,22.95,.21,3.62,2.96,8.45-3.77,9.52-1.13,.18-.1,2.29-1.82,2.83-1.53-2.6-.95-6.01-2.95-8.42,.83-.46,1.15-1.27,.97-2.09-1.38-6.46-5.22-11.93-6.98-18.29-1.13,3.26-1.78,6.43,.58,9,3.02,3.28,4.4,7.22,5.42,11.38-5.95-.85-12.28-.51-16.24-6.56-1.83-2.8-3.24-12.25-1.15-14.83,1.61-2,.36-2.39-.81-3.37-3.58-3.01-7.02-6.16-7.79-11.15l-.04,.04Zm20.51-1.43c1.98-2.07,4.46-2.2,6.49-1.52,4.69,1.56,7-1.31,9.4-4.25,.83-1.02,1.43-2.14,2.62-2.9,2.69-1.73,2.02-2.89-.7-3.87-2.64-.95-6.16-.87-6.6-4.92-.04-.39-.95-.76-1.51-1.01-3.97-1.74-6-.17-9.25,4.89-2.89,4.49-.64,8.64-.44,13.59Zm-9.67-8.1c-.64,2.13-3.7,.43-4.06,1.85-.39,1.56,.56,3.5,2.11,4.77,1.97,1.62,2.77,3.63,1.85,6.19-.89,2.49,3.78,7.85,6.42,7.49,1.97-.27,1.32-1.46,.96-2.55-1.79-5.51-3.61-11-5.36-16.52-.3-.93-.7-1.44-1.93-1.23Zm61.67,24.84c2.21,1.15,4.09,2.11,5.95,3.11,.51,.28,.72,1.24,1.56,.73,.79-.48,.92-1.26,.87-2.13-.27-4.05-1.96-4.46-8.38-1.71Zm-21.6-4.76c.15,3.21-.49,6.57,1.46,9.47-.02-3.24,2.05-6.84-1.46-9.47Z"/><path class="d" d="M39.62,107.27c-.82,.03-1.64,.06-2.46,.09,.77-3.7,2.24-7.27,1.93-11.15,.26-2.29,2.65-4.72-.95-6.71-1.26-.7-.75-2.7-.16-4.13,3.67-2.61,8-3.84,11.97-5.83,.33,.33,.65,.66,.98,1,.1,.61,.2,1.23,.3,1.84-1.68,5.52-.22,10.66,1.92,15.71-5.16,2.11-9.68,5.15-13.53,9.18Z"/><path class="d" d="M123.29,119.41c.3,2.65,.6,5.3,.9,7.95l.03-.11c-.83,.39-.97,1.14-1.02,1.94l-.09,.11-.91,.94c.04,.8-.26,1.76,.96,2.01l.24,.39c.02,.84-2.84,.62-1,1.8,2.22,1.41,2.57,1.23,.74,2.86-1.07,.95-.87,3.03-2.84,3.08l-.21-.19c-.32-.96-1.11-.94-1.9-.89-.1-.87,.04-1.64,.9-2.09,.15-.06,.44-.14,.43-.17-.05-.24-.14-.47-.23-.71-2.04-.16-3.12,1.65-4.72,2.41-4.28,2.02-5.32,1.59-6.38-3.49l-.02,.03c2.42-2.21,3.52-5.24,5.03-8.01l-.04,.03c.35-.35,.69-.69,1.04-1.04l-.04,.04c.35-.35,.69-.69,1.04-1.04l-.04,.04c3.66-.65,4.78-4.81,8.14-5.87Z"/><path class="d" d="M126.2,148.28c-.93,5.24-1.01,10.95-7.27,13.82-2.46,1.12-4.95,1.85-6.96,.48-1.94-1.33,.41-3.18,.79-4.82,1.14-4.93,3.97-8.85,7.55-12.29,1.16-1.11,2.2-2.76,4.15-2.06,2.3,.82,1.59,2.95,1.73,4.87Z"/><path class="e" d="M94.09,160.27c.1-2.73,1.99-5.28,.63-8.1,1.45-.86,2.29,.31,3.24,.73,2.55,1.12,3.42,.13,3.12-2.35-.34-2.73,.63-4.73,2.89-6.3,.87-.6,1.34-2.31,2.66-1.34,.97,.71,.88,2.41,.22,3.22-1.76,2.14-2.01,4.82-3.1,7.18-.79,1.71-.47,2.91,1.74,2.91-1.95,2-3.49,3.95-3.47,7.18,.02,3.73-3.76,5.34-5.95,8.69-1.12-4.44-2.11-8.03-1.99-11.82Z"/><path class="e" d="M98.23,89.28c2.25,9.64,5.8,18.94,7.35,28.77,.38,2.43,.02,4.63-.45,7.02-2.6-6.55-4.15-13.39-6.92-19.8,2.97-.18,1.42-1.79,.93-3.01-1.72-4.27-3.48-8.52-5.18-12.79-.67-1.67-.8-3.39-.31-5.26,2.37,1.04,3.29,3.22,4.58,5.07Z"/><path class="e" d="M96.4,104.18c-2.9,1.61-5.53,2.63-8.89,.31-3.63-2.51-7.1-1.29-9.05,2.7-1.11,2.28-1.62,2.4-2.45,0,1.78-2.62,3.55-5.24,5.33-7.86,2.99-1,2.31-4.28,3.87-6.18,.32,.03,.64,.06,.96,.09,.7,.34,1.39,.69,2.09,1.03,2.72,3.3,5.43,6.6,8.15,9.91Z"/><path class="d" d="M28.85,95.28c-2.43,1.28-2.32,4.72-4.99,5.8-1.8,.33-3.57-.22-5.07,2.03-1.58,2.38-3.93-.51-6.88-.08,5.19-5.51,10.44-9.18,16.48-11.79,.84-.36,1.53-.5,2.1,.37-.55,1.22-1.1,2.45-1.64,3.67Z"/><path class="e" d="M28.85,95.28c.55-1.22,1.1-2.45,1.64-3.67,1.07-.5,1.22-2.16,2.69-2.17,.04,.99,.07,1.97,.11,2.96,1.41,5.27-.44,10.59,.21,15.87-4.34-.24-4.52-2.16-3.13-5.87,.78-2.08,5.3-6.2-1.52-7.11Z"/><path class="d" d="M33.28,92.4c-.04-.99-.07-1.97-.11-2.96,1.28-1.73,2.23-3.85,4.8-4.07-.59,1.43-1.1,3.44,.16,4.13,3.6,1.99,1.21,4.42,.95,6.71-3.22,.67-2.17-5.12-5.81-3.81Z"/><path class="e" d="M123.29,119.41c-3.36,1.06-4.48,5.22-8.14,5.87,1.27-3.6,4.39-5.56,7.09-7.87,1.47-1.26,3.33-2.11,3.83-4.22,.33-.34,.63-.93,1-.99,1.64-.24,.91,1.05,.64,1.44-1.4,1.98-2.93,3.86-4.42,5.77Z"/><path class="e" d="M126.89,125.03c1.18-2.19,2.35-4.38,4.07-7.59,.42,4.3-.95,6.46-4.07,7.59Z"/><path class="d" d="M126.07,129.12c.51,1.09,1.65,2.13,.75,3.43-1.01,1.44-2.26,.19-3.41,.07l-.24-.39c.47-.88,.94-1.77,1.41-2.65l1.49-.46Z"/><path class="e" d="M126.07,129.12l-1.49,.46c-.25-.21-.49-.42-.73-.64,.13-.57,.26-1.13,.38-1.7l-.03,.11c.52-.26,1.03-.51,1.55-.77,.3,.37,.61,.73,.91,1.1l-.59,1.44Z"/><path class="e" d="M125.74,126.58c.4-.38,.79-1.01,1.37-.33,.52,.62-.06,1.03-.46,1.43-.3-.37-.61-.73-.91-1.1Z"/><path class="d" d="M53.15,98.09c-2.14-5.05-3.6-10.19-1.92-15.71,.57,.78,1.25,1.5,1.69,2.34,4.2,7.89,6.09,17.15,14.02,22.86,1.26,.91,1.55,3.17,2.28,4.81l.02-.07c-1.63,.15-3.3-.55-3.93-1.7-2.93-5.32-8.13-8.35-12.16-12.52Z"/><path class="d" d="M64.15,34.97c1.34-.62,.39-3.44,2.56-2.98,1.5,.31,1.61,1.96,1.45,3.32-.24,2.07,.73,2.89,2.66,3.4,1.67,.45,2.01,2.43,1.84,3.68-.21,1.59-2.04-.44-2.99,.72-.5,1.76,3.46,1.3,2.04,3.49-1,1.53-2.72,.78-4.13,.79-1.82,0-3.63-.2-5.45-.32,1.71-3.87,5.19-7.44,2.02-12.12Z"/><path class="f" d="M64.15,34.97c3.17,4.68-.31,8.25-2.02,12.12-1.08,.39-2.49,.65-1.25,2.25,.61,.79,1.57,1.54,.1,2.22-.83,.39-1.92,.61-2.8,.43-1.29-.26-1.06-1.58-.86-2.44,.42-1.81,.24-3.54-.21-5.29-.66-1.14-.17-2.22,.15-3.32,2.98-1.21,4.21-4.42,6.89-5.97Z"/><path class="d" d="M55.14,25.98c3.32-.62,5.87-2.66,8.46-4.62,2.51,1.39,7.23,1.34,3.69,6.45-1.24,1.78-2.15,1.49-3.66,.95-2.8-1-5.66-1.86-8.49-2.78Z"/><path class="f" d="M89.08,40.48c-1.52,2.09-.95,4.75-1.92,7.02-.43,1.01-.78,1.79-1.99,1.77-1.58-.03-1.86-1.11-1.88-2.36,0-.82-.28-1.97,.15-2.42,2.45-2.57,3.31-6.04,5.3-8.85,.11,1.61,.23,3.23,.35,4.84Z"/><path class="f" d="M73.14,108.26c.54,3.64-3.44,6.16-2.37,10.2,.3,1.16-2,.57-2.98-.4,.71-1.86,1.79-3.62,1.46-5.74l-.02,.07c2.44-.31,1.93-3.4,3.92-4.13Z"/><path class="f" d="M81.34,99.33c-1.78,2.62-3.55,5.24-5.33,7.86-.95,.38-1.59,1.57-2.87,1.06,.38-4.1,4.27-5.82,6.08-8.95,.71,.01,1.42,.02,2.12,.03Z"/><path class="f" d="M49.14,33.4l.41-.62c.69,.6-.06,.54-.32,.71l-.09-.08Z"/><path class="f" d="M86.17,93.24c-.32-.03-.64-.06-.96-.09,.37-.48,.69-.46,.96,.09Z"/><path class="e" d="M81.19,67.4l.2-.4-.22,.38,.02,.02Z"/><path class="f" d="M30.72,130.84c-.2-4.95-2.45-9.09,.44-13.59,3.25-5.06,5.27-6.63,9.25-4.89,.56,.25,1.47,.62,1.51,1.01,.45,4.04,3.96,3.97,6.6,4.92,2.72,.98,3.4,2.14,.7,3.87-1.18,.76-1.79,1.89-2.62,2.9-2.4,2.94-4.71,5.81-9.4,4.25-2.03-.68-4.51-.55-6.49,1.52Z"/><path class="e" d="M69.24,112.32c.33,2.12-.74,3.89-1.46,5.74-3.25,4.39-3.27,9.58-3.72,14.68-.2,2.32,.47,4.8-1.08,7.86-1.49-4.03-.28-7.36-.98-10.5,.05-.94,.09-1.88,.14-2.83,1.26-3.51,2.57-7,3.73-10.55,.22-.68,.03-1.66-.31-2.32-4.18-8.01-14.12-11.42-22.64-7.89-1.03,.43-2.2,.5-3.31,.74,3.85-4.03,8.37-7.07,13.53-9.18,4.04,4.18,9.23,7.2,12.16,12.52,.63,1.15,2.3,1.86,3.93,1.7Z"/><path class="e" d="M21.05,122.74c1.23-.21,1.64,.3,1.93,1.23,1.75,5.52,3.57,11.02,5.36,16.52,.36,1.1,1.01,2.28-.96,2.55-2.64,.36-7.31-5.01-6.42-7.49,.91-2.56,.11-4.57-1.85-6.19-1.54-1.27-2.5-3.22-2.11-4.77,.36-1.42,3.42,.28,4.06-1.85Z"/><path class="f" d="M33.28,92.4c3.64-1.31,2.59,4.49,5.81,3.81,.32,3.88-1.16,7.46-1.93,11.15-1.12,.73-2.36,.96-3.66,.9-.66-5.28,1.19-10.6-.21-15.87Z"/><path class="f" d="M62.15,127.28c-.05,.94-.09,1.89-.14,2.83-3.31,.59-2.83,3.69-3.83,5.8-.91,1.93-1.7,3.92-2.62,6.05-1.08-2.37,.9-13.39,2.4-14.82,1.51-1.43,2.79,.4,4.19,.15Z"/><path class="e" d="M119.08,137.18c-.86,.46-.99,1.23-.9,2.09-.1,.3-.18,.6-.25,.9-2.94,2.58-5.69,4.82-9.75,1.36-2.9-2.47-2.8-4.21,0-6.32,1.06,5.09,2.1,5.51,6.38,3.49,1.6-.76,2.68-2.57,4.72-2.41-.06,.29-.13,.59-.2,.88Z"/><path class="e" d="M113.19,127.24c-1.51,2.77-2.61,5.81-5.03,8.01-1.44-5.54,1.08-10.84,.63-16.37,1.46,1.65,2.53,3.18,1.8,5.33-.79,2.3,.63,2.96,2.6,3.03Z"/><path class="e" d="M36.23,168.13c-1.02-4.16-2.4-8.1-5.42-11.38-2.36-2.56-1.72-5.73-.58-9,1.76,6.36,5.6,11.83,6.98,18.29,.17,.82-.14,1.63-.97,2.09h0Z"/><path class="f" d="M82.72,147.58c6.42-2.74,8.11-2.34,8.38,1.71,.06,.87-.07,1.65-.87,2.13-.84,.51-1.05-.46-1.56-.73-1.86-1-3.74-1.96-5.95-3.11Z"/><path class="e" d="M61.12,142.82c3.51,2.63,1.44,6.23,1.46,9.47-1.95-2.9-1.31-6.25-1.46-9.47Z"/><path class="f" d="M117.94,140.18c.07-.31,.15-.61,.25-.9,.8-.05,1.58-.06,1.9,.89-.72,0-1.44,0-2.15,.01Z"/><path class="e" d="M114.19,126.24c-.35,.35-.69,.69-1.04,1.04,.35-.35,.69-.69,1.04-1.04Z"/><path class="e" d="M115.19,125.24c-.35,.35-.69,.69-1.04,1.04,.35-.35,.69-.69,1.04-1.04Z"/><path class="e" d="M124.57,129.58c-.47,.88-.94,1.77-1.41,2.65-1.21-.24-.92-1.21-.96-2,.3-.31,.61-.62,.92-.94l.09-.1c.2-.11,.41-.2,.64-.25,.24,.22,.48,.43,.73,.64Z"/><path class="f" d="M123.84,128.94c-.23,.05-.44,.13-.64,.25,.05-.8,.19-1.55,1.02-1.94-.13,.56-.26,1.13-.38,1.7Z"/><path class="f" d="M119.08,137.18c.07-.29,.14-.59,.2-.88,.08,.24,.18,.47,.23,.71,0,.03-.28,.11-.43,.17Z"/><path class="f" d="M123.12,129.29c-.31,.31-.61,.62-.92,.94,.31-.31,.61-.62,.92-.94Z"/></g></g></g></svg>